<svg xmlns="http://www.w3.org/2000/svg" width="1120" height="640" viewBox="0 0 1120 640" role="img" aria-labelledby="title desc">
<title id="title">Section visual card</title>
<desc id="desc">addyosmani/agent-skills best practices</desc>
<rect width="1120" height="640" rx="28" fill="#0b1020"/>
<rect x="32" y="32" width="1056" height="128" rx="22" fill="#111827" stroke="#263244"/>
<text x="60" y="78" fill="#f8fafc" font-family="Inter, Arial, sans-serif" font-size="30" font-weight="750">Section visual card</text>
<text x="60" y="112" fill="#94a3b8" font-family="Inter, Arial, sans-serif" font-size="16">addyosmani/agent-skills best practices</text>
<rect x="54" y="246" width="198" height="160" rx="18" fill="#172033" stroke="#2dd4bf" stroke-opacity="0.34"/>
<text x="74" y="288" fill="#5eead4" font-family="Inter, Arial, sans-serif" font-size="13" font-weight="700">STEP 1</text>
<text x="74" y="324" fill="#e2e8f0" font-family="Inter, Arial, sans-serif" font-size="15" font-weight="650">Claim</text>
<line x1="257" y1="326" x2="269" y2="326" stroke="#64748b" stroke-width="2"/>
<path d="M 269 326 L 261 320 L 261 332 Z" fill="#64748b"/>
<rect x="274" y="246" width="198" height="160" rx="18" fill="#172033" stroke="#2dd4bf" stroke-opacity="0.34"/>
<text x="294" y="288" fill="#5eead4" font-family="Inter, Arial, sans-serif" font-size="13" font-weight="700">STEP 2</text>
<text x="294" y="324" fill="#e2e8f0" font-family="Inter, Arial, sans-serif" font-size="15" font-weight="650">Evidence</text>
<line x1="477" y1="326" x2="489" y2="326" stroke="#64748b" stroke-width="2"/>
<path d="M 489 326 L 481 320 L 481 332 Z" fill="#64748b"/>
<rect x="494" y="246" width="198" height="160" rx="18" fill="#172033" stroke="#2dd4bf" stroke-opacity="0.34"/>
<text x="514" y="288" fill="#5eead4" font-family="Inter, Arial, sans-serif" font-size="13" font-weight="700">STEP 3</text>
<text x="514" y="324" fill="#e2e8f0" font-family="Inter, Arial, sans-serif" font-size="15" font-weight="650">Interpretation</text>
<line x1="697" y1="326" x2="709" y2="326" stroke="#64748b" stroke-width="2"/>
<path d="M 709 326 L 701 320 L 701 332 Z" fill="#64748b"/>
<rect x="714" y="246" width="198" height="160" rx="18" fill="#172033" stroke="#2dd4bf" stroke-opacity="0.34"/>
<text x="734" y="288" fill="#5eead4" font-family="Inter, Arial, sans-serif" font-size="13" font-weight="700">STEP 4</text>
<text x="734" y="324" fill="#e2e8f0" font-family="Inter, Arial, sans-serif" font-size="15" font-weight="650">Risk note</text>
<line x1="917" y1="326" x2="929" y2="326" stroke="#64748b" stroke-width="2"/>
<path d="M 929 326 L 921 320 L 921 332 Z" fill="#64748b"/>
<rect x="934" y="246" width="198" height="160" rx="18" fill="#172033" stroke="#2dd4bf" stroke-opacity="0.34"/>
<text x="954" y="288" fill="#5eead4" font-family="Inter, Arial, sans-serif" font-size="13" font-weight="700">STEP 5</text>
<text x="954" y="324" fill="#e2e8f0" font-family="Inter, Arial, sans-serif" font-size="15" font-weight="650">Conclusion</text>
<text x="60" y="580" fill="#64748b" font-family="Inter, Arial, sans-serif" font-size="13">Use this card to anchor a dense article section without replacing source evidence.</text>
</svg>